<svg width="24" height="24" viewBox="0 0 24 24" fill="none" xmlns="http://www.w3.org/2000/svg">
<path d="M2 4.13464V11.44C2.02841 13.8536 2.79774 16.2003 4.20387 18.1623C5.61 20.1243 7.58501 21.6068 9.86156 22.4093L10.9352 22.8038C11.6516 23.0654 12.4373 23.0654 13.1536 22.8038L14.2241 22.4093C16.5006 21.6068 18.4756 20.1243 19.8817 18.1623C21.2879 16.2003 22.0572 13.8536 22.0856 11.44V4.13464C22.085 3.84762 22.0001 3.56711 21.8414 3.32795C21.6827 3.08878 21.4573 2.90149 21.1931 2.78935C18.2959 1.58032 15.1836 0.971925 12.0444 1.00101C8.90421 0.971667 5.79072 1.58006 2.89255 2.78935C2.62884 2.90219 2.40387 3.08964 2.24529 3.32865C2.08672 3.56766 2.00146 3.84781 2 4.13464V4.13464Z" stroke="#0D4CD3" stroke-width="1.2" stroke-linecap="round" stroke-linejoin="round"/>
<path d="M11.9829 8.54675L12.0023 17" stroke="#0D4CD3" stroke-width="1.2" stroke-linecap="round" stroke-linejoin="round"/>
<path d="M8.81934 17.213H15.2491" stroke="#0D4CD3" stroke-width="1.2" stroke-linecap="round" stroke-linejoin="round"/>
<path d="M11.8452 6.18877L10.9754 7.05853C10.8711 7.16279 10.8711 7.33184 10.9754 7.4361L11.8452 8.30586C11.9494 8.41012 12.1185 8.41012 12.2227 8.30586L13.0925 7.4361C13.1968 7.33184 13.1968 7.16279 13.0925 7.05853L12.2227 6.18877C12.1185 6.08451 11.9494 6.08451 11.8452 6.18877Z" stroke="#0D4CD3" stroke-width="1.2" stroke-linecap="round" stroke-linejoin="round"/>
<path d="M10.9711 7.24841H7.28735" stroke="#0D4CD3" stroke-width="1.2" stroke-linecap="round" stroke-linejoin="round"/>
<path d="M13.1675 7.24841H16.7113" stroke="#0D4CD3" stroke-width="1.2" stroke-linecap="round" stroke-linejoin="round"/>
<path d="M14.4768 12.4681C14.4301 12.5603 14.4135 12.6648 14.4295 12.7669C14.4455 12.869 14.4931 12.9635 14.5658 13.037C14.8477 13.3145 15.1836 13.5313 15.5526 13.674C15.9216 13.8167 16.3159 13.8822 16.7112 13.8666C17.1069 13.8821 17.5017 13.8165 17.8712 13.6738C18.2407 13.5312 18.5771 13.3145 18.8597 13.037C18.9318 12.9632 18.9789 12.8685 18.9943 12.7664C19.0097 12.6643 18.9927 12.56 18.9455 12.4681L17.153 8.92427C17.1111 8.8436 17.048 8.77598 16.9703 8.72878C16.8927 8.68158 16.8036 8.65662 16.7128 8.65662C16.6219 8.65662 16.5328 8.68158 16.4552 8.72878C16.3775 8.77598 16.3144 8.8436 16.2726 8.92427L14.4768 12.4681Z" stroke="#0D4CD3" stroke-width="1.2" stroke-linecap="round" stroke-linejoin="round"/>
<path d="M5.0532 12.4681C5.00649 12.5603 4.98995 12.6648 5.00592 12.7669C5.02189 12.869 5.06956 12.9635 5.14219 13.0371C5.42442 13.314 5.76038 13.5302 6.12935 13.6723C6.49833 13.8144 6.8925 13.8795 7.28758 13.8634C7.68545 13.8807 8.08262 13.8159 8.45442 13.6732C8.82622 13.5305 9.16471 13.3129 9.44886 13.0339C9.51822 12.9588 9.56253 12.864 9.57562 12.7627C9.58872 12.6613 9.56997 12.5584 9.52196 12.4681L7.72937 8.92427C7.68756 8.8436 7.62439 8.77598 7.54676 8.72878C7.46913 8.68158 7.38002 8.65662 7.28917 8.65662C7.19832 8.65662 7.10921 8.68158 7.03158 8.72878C6.95395 8.77598 6.89078 8.8436 6.84897 8.92427L5.0532 12.4681Z" stroke="#0D4CD3" stroke-width="1.2" stroke-linecap="round" stroke-linejoin="round"/>
</svg>
